<svg width="24" height="25" viewBox="0 0 24 25" fill="none" xmlns="http://www.w3.org/2000/svg">
<path fill-rule="evenodd" clip-rule="evenodd" d="M12 3.35938C10.4087 3.35938 8.88258 3.99152 7.75736 5.11673C6.63214 6.24195 6 7.76808 6 9.35938V14.3594C6 15.0676 5.81218 15.7565 5.46411 16.3594H18.5359C18.1878 15.7565 18 15.0676 18 14.3594V9.35938C18 7.76808 17.3679 6.24195 16.2426 5.11673C15.1174 3.99152 13.5913 3.35938 12 3.35938ZM22 16.3594C21.4696 16.3594 20.9609 16.1487 20.5858 15.7736C20.2107 15.3985 20 14.8898 20 14.3594V9.35938C20 7.23764 19.1571 5.20281 17.6569 3.70252C16.1566 2.20223 14.1217 1.35938 12 1.35938C9.87827 1.35938 7.84344 2.20223 6.34315 3.70252C4.84285 5.20281 4 7.23764 4 9.35938V14.3594C4 14.8898 3.78929 15.3985 3.41421 15.7736C3.03914 16.1487 2.53043 16.3594 2 16.3594C1.44772 16.3594 1 16.8071 1 17.3594C1 17.9117 1.44772 18.3594 2 18.3594H22V16.3594ZM9.76823 20.4944C10.246 20.2173 10.8579 20.3799 11.135 20.8576C11.2229 21.0091 11.3491 21.1349 11.5009 21.2224C11.6527 21.3098 11.8248 21.3558 12 21.3558C12.1752 21.3558 12.3473 21.3098 12.4991 21.2224C12.6509 21.1349 12.7771 21.0091 12.865 20.8576C13.1421 20.3799 13.754 20.2173 14.2318 20.4944C14.7095 20.7715 14.8721 21.3834 14.595 21.8611C14.3313 22.3158 13.9528 22.6931 13.4973 22.9554C13.0419 23.2178 12.5256 23.3558 12 23.3558C11.4744 23.3558 10.9581 23.2178 10.5027 22.9554C10.0472 22.6931 9.66872 22.3158 9.405 21.8611C9.12788 21.3834 9.2905 20.7715 9.76823 20.4944Z" fill="white"/>
</svg>
