<svg width="24" height="25" viewBox="0 0 24 25" fill="none" xmlns="http://www.w3.org/2000/svg">
<g clip-path="url(#clip0_65_1020)">
<path fill-rule="evenodd" clip-rule="evenodd" d="M12 2.35938C8.68629 2.35938 6 5.04567 6 8.35938C6 11.6731 8.68629 14.3594 12 14.3594C15.3137 14.3594 18 11.6731 18 8.35938C18 5.04567 15.3137 2.35938 12 2.35938ZM4 8.35938C4 3.9411 7.58172 0.359375 12 0.359375C16.4183 0.359375 20 3.9411 20 8.35938C20 12.7777 16.4183 16.3594 12 16.3594C7.58172 16.3594 4 12.7777 4 8.35938Z" fill="white"/>
<path fill-rule="evenodd" clip-rule="evenodd" d="M15.6585 13.249C16.206 13.1764 16.7087 13.5613 16.7813 14.1088L17.9913 23.2288C18.0418 23.6095 17.8699 23.9854 17.549 24.1962C17.2281 24.407 16.8148 24.4154 16.4855 24.2178L12 21.5265L7.51452 24.2178C7.18525 24.4154 6.77193 24.407 6.45099 24.1961C6.13004 23.9853 5.95817 23.6093 6.00873 23.2287L7.21873 14.1187C7.29145 13.5712 7.79421 13.1863 8.34169 13.2591C8.88917 13.3318 9.27403 13.8345 9.20132 14.382L8.26447 21.4355L11.4855 19.5029C11.8022 19.3128 12.1978 19.3128 12.5145 19.5029L15.7359 21.4357L14.7987 14.3719C14.7261 13.8244 15.111 13.3217 15.6585 13.249Z" fill="white"/>
</g>
<defs>
<clipPath id="clip0_65_1020">
<rect width="24" height="24" fill="white" transform="translate(0 0.359375)"/>
</clipPath>
</defs>
</svg>
