<svg width="24" height="25" viewBox="0 0 24 25" fill="none" xmlns="http://www.w3.org/2000/svg">
<path fill-rule="evenodd" clip-rule="evenodd" d="M2 3.35938C2 2.80709 2.44772 2.35938 3 2.35938H10C10.5523 2.35938 11 2.80709 11 3.35938V10.3594C11 10.9117 10.5523 11.3594 10 11.3594H3C2.44772 11.3594 2 10.9117 2 10.3594V3.35938ZM4 4.35938V9.35938H9V4.35938H4Z" fill="white"/>
<path fill-rule="evenodd" clip-rule="evenodd" d="M13 3.35938C13 2.80709 13.4477 2.35938 14 2.35938H21C21.5523 2.35938 22 2.80709 22 3.35938V10.3594C22 10.9117 21.5523 11.3594 21 11.3594H14C13.4477 11.3594 13 10.9117 13 10.3594V3.35938ZM15 4.35938V9.35938H20V4.35938H15Z" fill="white"/>
<path fill-rule="evenodd" clip-rule="evenodd" d="M13 14.3594C13 13.8071 13.4477 13.3594 14 13.3594H21C21.5523 13.3594 22 13.8071 22 14.3594V21.3594C22 21.9117 21.5523 22.3594 21 22.3594H14C13.4477 22.3594 13 21.9117 13 21.3594V14.3594ZM15 15.3594V20.3594H20V15.3594H15Z" fill="white"/>
<path fill-rule="evenodd" clip-rule="evenodd" d="M2 14.3594C2 13.8071 2.44772 13.3594 3 13.3594H10C10.5523 13.3594 11 13.8071 11 14.3594V21.3594C11 21.9117 10.5523 22.3594 10 22.3594H3C2.44772 22.3594 2 21.9117 2 21.3594V14.3594ZM4 15.3594V20.3594H9V15.3594H4Z" fill="white"/>
</svg>
