<svg width="76" height="31" viewBox="0 0 76 31" fill="none" xmlns="http://www.w3.org/2000/svg">
<path d="M75.7872 23.7602L73.4052 23.9067C73.3645 23.7031 73.277 23.5199 73.1426 23.3571C73.0082 23.1901 72.8311 23.0578 72.6113 22.9601C72.3955 22.8583 72.1369 22.8074 71.8356 22.8074C71.4325 22.8074 71.0925 22.8929 70.8156 23.0639C70.5387 23.2308 70.4003 23.4548 70.4003 23.7357C70.4003 23.9597 70.4899 24.149 70.669 24.3037C70.8482 24.4584 71.1556 24.5826 71.5913 24.6763L73.2892 25.0183C74.2012 25.2056 74.8812 25.5069 75.3291 25.9222C75.777 26.3375 76.0009 26.8831 76.0009 27.5591C76.0009 28.1739 75.8197 28.7134 75.4574 29.1776C75.0991 29.6417 74.6064 30.0041 73.9793 30.2647C73.3564 30.5212 72.6377 30.6495 71.8234 30.6495C70.5815 30.6495 69.5921 30.3909 68.8551 29.8738C68.1222 29.3526 67.6926 28.6442 67.5664 27.7484L70.1255 27.614C70.2028 27.9927 70.3901 28.2818 70.6874 28.4813C70.9846 28.6767 71.3653 28.7745 71.8295 28.7745C72.2855 28.7745 72.652 28.6869 72.9288 28.5118C73.2098 28.3327 73.3523 28.1026 73.3564 27.8217C73.3523 27.5855 73.2525 27.3921 73.0571 27.2415C72.8617 27.0867 72.5604 26.9687 72.1532 26.8872L70.5286 26.5635C69.6124 26.3803 68.9304 26.0627 68.4825 25.6107C68.0387 25.1588 67.8168 24.5826 67.8168 23.8823C67.8168 23.2797 67.9797 22.7605 68.3054 22.3249C68.6352 21.8892 69.0974 21.5533 69.6918 21.3171C70.2904 21.081 70.9907 20.9629 71.7928 20.9629C72.9777 20.9629 73.9101 21.2133 74.5901 21.7141C75.2741 22.2149 75.6732 22.897 75.7872 23.7602Z" fill="white"/>
<path d="M61.0582 30.6434C60.4597 30.6434 59.9263 30.5395 59.458 30.3319C58.9898 30.1202 58.6193 29.8087 58.3465 29.3974C58.0777 28.9821 57.9434 28.465 57.9434 27.8461C57.9434 27.3249 58.039 26.8872 58.2304 26.533C58.4218 26.1787 58.6824 25.8937 59.0122 25.6779C59.342 25.4621 59.7166 25.2993 60.136 25.1893C60.5594 25.0794 61.0033 25.002 61.4674 24.9572C62.013 24.9002 62.4528 24.8473 62.7867 24.7984C63.1205 24.7455 63.3628 24.6681 63.5135 24.5663C63.6641 24.4646 63.7394 24.3139 63.7394 24.1144V24.0777C63.7394 23.6909 63.6173 23.3917 63.373 23.1799C63.1328 22.9682 62.7907 22.8623 62.3469 22.8623C61.8787 22.8623 61.5061 22.9662 61.2292 23.1738C60.9524 23.3774 60.7691 23.6339 60.6795 23.9434L58.2732 23.7479C58.3953 23.1779 58.6356 22.6852 58.9939 22.2699C59.3522 21.8505 59.8143 21.5289 60.3803 21.3049C60.9503 21.0769 61.6099 20.9629 62.3591 20.9629C62.8803 20.9629 63.3791 21.024 63.8555 21.1461C64.3359 21.2683 64.7614 21.4576 65.132 21.7141C65.5066 21.9706 65.8018 22.3004 66.0176 22.7035C66.2334 23.1026 66.3413 23.581 66.3413 24.1388V30.4663H63.8738V29.1653H63.8005C63.6499 29.4585 63.4483 29.7171 63.1959 29.941C62.9434 30.1609 62.6401 30.3339 62.2858 30.4601C61.9316 30.5823 61.5224 30.6434 61.0582 30.6434ZM61.8033 28.8477C62.1861 28.8477 62.524 28.7724 62.8172 28.6218C63.1104 28.467 63.3404 28.2594 63.5073 27.9988C63.6743 27.7382 63.7578 27.443 63.7578 27.1132V26.1177C63.6763 26.1706 63.5644 26.2195 63.4218 26.2643C63.2834 26.305 63.1266 26.3436 62.9516 26.3803C62.7765 26.4129 62.6014 26.4434 62.4263 26.4719C62.2512 26.4963 62.0924 26.5187 61.9499 26.5391C61.6445 26.5839 61.3778 26.6551 61.1498 26.7529C60.9218 26.8506 60.7447 26.9829 60.6185 27.1498C60.4923 27.3127 60.4291 27.5163 60.4291 27.7606C60.4291 28.1148 60.5574 28.3856 60.8139 28.5729C61.0745 28.7561 61.4043 28.8477 61.8033 28.8477Z" fill="white"/>
<path d="M52.7575 30.6495C51.7925 30.6495 50.9619 30.454 50.2656 30.0632C49.5734 29.6682 49.04 29.1104 48.6654 28.3897C48.2908 27.6649 48.1035 26.8078 48.1035 25.8184C48.1035 24.8534 48.2908 24.0065 48.6654 23.2777C49.04 22.5488 49.5673 21.9808 50.2473 21.5736C50.9313 21.1665 51.7334 20.9629 52.6537 20.9629C53.2726 20.9629 53.8487 21.0626 54.3821 21.2622C54.9196 21.4576 55.3878 21.7528 55.7868 22.1478C56.1899 22.5427 56.5034 23.0395 56.7274 23.638C56.9513 24.2325 57.0633 24.9287 57.0633 25.7268V26.4414H49.1418V24.829H54.6142C54.6142 24.4544 54.5327 24.1225 54.3699 23.8334C54.207 23.5444 53.981 23.3184 53.6919 23.1555C53.4069 22.9886 53.0751 22.9051 52.6964 22.9051C52.3015 22.9051 51.9513 22.9967 51.6459 23.1799C51.3446 23.3591 51.1084 23.6014 50.9374 23.9067C50.7664 24.208 50.6789 24.544 50.6748 24.9145V26.4475C50.6748 26.9117 50.7603 27.3127 50.9313 27.6507C51.1064 27.9886 51.3527 28.2492 51.6703 28.4324C51.9879 28.6157 52.3646 28.7073 52.8002 28.7073C53.0893 28.7073 53.354 28.6666 53.5942 28.5851C53.8344 28.5037 54.0401 28.3815 54.2111 28.2187C54.3821 28.0558 54.5124 27.8563 54.602 27.6201L57.0083 27.7789C56.8862 28.3571 56.6358 28.862 56.2571 29.2936C55.8825 29.7211 55.398 30.055 54.8035 30.2952C54.2131 30.5314 53.5311 30.6495 52.7575 30.6495Z" fill="white"/>
<path d="M47.0079 23.7602L44.6259 23.9067C44.5852 23.7031 44.4977 23.5199 44.3633 23.3571C44.2289 23.1901 44.0518 23.0578 43.8319 22.9601C43.6161 22.8583 43.3576 22.8074 43.0563 22.8074C42.6532 22.8074 42.3132 22.8929 42.0363 23.0639C41.7595 23.2308 41.621 23.4548 41.621 23.7357C41.621 23.9597 41.7106 24.149 41.8897 24.3037C42.0689 24.4584 42.3763 24.5826 42.812 24.6763L44.5099 25.0183C45.4219 25.2056 46.1019 25.5069 46.5498 25.9222C46.9977 26.3375 47.2216 26.8831 47.2216 27.5591C47.2216 28.1739 47.0405 28.7134 46.6781 29.1776C46.3198 29.6417 45.8271 30.0041 45.2 30.2647C44.5771 30.5212 43.8584 30.6495 43.0441 30.6495C41.8022 30.6495 40.8128 30.3909 40.0758 29.8738C39.3429 29.3526 38.9133 28.6442 38.7871 27.7484L41.3462 27.614C41.4235 27.9927 41.6108 28.2818 41.9081 28.4813C42.2053 28.6767 42.586 28.7745 43.0502 28.7745C43.5062 28.7745 43.8727 28.6869 44.1495 28.5118C44.4305 28.3327 44.573 28.1026 44.5771 27.8217C44.573 27.5855 44.4732 27.3921 44.2778 27.2415C44.0824 27.0867 43.7811 26.9687 43.3739 26.8872L41.7493 26.5635C40.8331 26.3803 40.1511 26.0627 39.7032 25.6107C39.2594 25.1588 39.0375 24.5826 39.0375 23.8823C39.0375 23.2797 39.2004 22.7605 39.5261 22.3249C39.8559 21.8892 40.3181 21.5533 40.9125 21.3171C41.5111 21.081 42.2114 20.9629 43.0135 20.9629C44.1984 20.9629 45.1308 21.2133 45.8108 21.7141C46.4948 22.2149 46.8939 22.897 47.0079 23.7602Z" fill="white"/>
<path d="M32.5449 30.4667V21.0855H35.0673V22.7224H35.1651C35.3361 22.1401 35.6231 21.7004 36.0262 21.4031C36.4293 21.1018 36.8935 20.9512 37.4188 20.9512C37.5491 20.9512 37.6895 20.9593 37.8402 20.9756C37.9908 20.9919 38.1232 21.0143 38.2372 21.0428V23.3514C38.115 23.3148 37.946 23.2822 37.7302 23.2537C37.5144 23.2252 37.317 23.211 37.1378 23.211C36.7551 23.211 36.413 23.2944 36.1117 23.4614C35.8145 23.6242 35.5783 23.8523 35.4033 24.1454C35.2323 24.4386 35.1467 24.7765 35.1467 25.1593V30.4667H32.5449Z" fill="white"/>
<path d="M26.9196 30.6495C25.9546 30.6495 25.124 30.454 24.4277 30.0632C23.7355 29.6682 23.2021 29.1104 22.8275 28.3897C22.4529 27.6649 22.2656 26.8078 22.2656 25.8184C22.2656 24.8534 22.4529 24.0065 22.8275 23.2777C23.2021 22.5488 23.7294 21.9808 24.4094 21.5736C25.0934 21.1665 25.8956 20.9629 26.8158 20.9629C27.4347 20.9629 28.0108 21.0626 28.5442 21.2622C29.0817 21.4576 29.5499 21.7528 29.9489 22.1478C30.352 22.5427 30.6656 23.0395 30.8895 23.638C31.1134 24.2325 31.2254 24.9287 31.2254 25.7268V26.4414H23.3039V24.829H28.7763C28.7763 24.4544 28.6948 24.1225 28.532 23.8334C28.3691 23.5444 28.1431 23.3184 27.854 23.1555C27.569 22.9886 27.2372 22.9051 26.8585 22.9051C26.4636 22.9051 26.1134 22.9967 25.808 23.1799C25.5067 23.3591 25.2705 23.6014 25.0995 23.9067C24.9285 24.208 24.841 24.544 24.8369 24.9145V26.4475C24.8369 26.9117 24.9224 27.3127 25.0934 27.6507C25.2685 27.9886 25.5149 28.2492 25.8324 28.4324C26.15 28.6157 26.5267 28.7073 26.9623 28.7073C27.2514 28.7073 27.5161 28.6666 27.7563 28.5851C27.9966 28.5037 28.2022 28.3815 28.3732 28.2187C28.5442 28.0558 28.6745 27.8563 28.7641 27.6201L31.1704 27.7789C31.0483 28.3571 30.7979 28.862 30.4192 29.2936C30.0446 29.7211 29.5601 30.055 28.9656 30.2952C28.3752 30.5314 27.6932 30.6495 26.9196 30.6495Z" fill="white"/>
<path d="M21.9931 21.084L18.7133 30.4652H15.7817L12.502 21.084H15.2504L17.1987 27.7962H17.2964L19.2386 21.084H21.9931Z" fill="white"/>
<path d="M11.7143 24.2123C11.7143 25.5763 11.4557 26.7367 10.9386 27.6936C10.4256 28.6504 9.72526 29.3813 8.83763 29.8862C7.95407 30.387 6.96058 30.6374 5.85714 30.6374C4.74557 30.6374 3.74801 30.385 2.86445 29.8801C1.98089 29.3752 1.28258 28.6443 0.769549 27.6875C0.256515 26.7306 0 25.5722 0 24.2123C0 22.8482 0.256515 21.6878 0.769549 20.731C1.28258 19.7741 1.98089 19.0453 2.86445 18.5444C3.74801 18.0396 4.74557 17.7871 5.85714 17.7871C6.96058 17.7871 7.95407 18.0396 8.83763 18.5444C9.72526 19.0453 10.4256 19.7741 10.9386 20.731C11.4557 21.6878 11.7143 22.8482 11.7143 24.2123ZM9.03308 24.2123C9.03308 23.3287 8.90074 22.5836 8.63608 21.9769C8.37549 21.3702 8.00701 20.9101 7.53062 20.5966C7.05423 20.2831 6.4964 20.1263 5.85714 20.1263C5.21789 20.1263 4.66007 20.2831 4.18368 20.5966C3.70729 20.9101 3.33676 21.3702 3.0721 21.9769C2.81151 22.5836 2.68121 23.3287 2.68121 24.2123C2.68121 25.0958 2.81151 25.8409 3.0721 26.4476C3.33676 27.0543 3.70729 27.5144 4.18368 27.8279C4.66007 28.1415 5.21789 28.2982 5.85714 28.2982C6.4964 28.2982 7.05423 28.1415 7.53062 27.8279C8.00701 27.5144 8.37549 27.0543 8.63608 26.4476C8.90074 25.8409 9.03308 25.0958 9.03308 24.2123Z" fill="white"/>
<path d="M68.1417 3.58743V5.54184H62.4922V3.58743H68.1417ZM63.7748 1.33984H66.3766V10.0859C66.3766 10.3261 66.4132 10.5134 66.4865 10.6478C66.5598 10.7781 66.6616 10.8697 66.7919 10.9226C66.9263 10.9755 67.081 11.002 67.2561 11.002C67.3782 11.002 67.5004 10.9918 67.6225 10.9715C67.7447 10.947 67.8383 10.9287 67.9035 10.9165L68.3127 12.8526C68.1824 12.8933 67.9992 12.9401 67.763 12.9931C67.5269 13.0501 67.2398 13.0847 66.9018 13.0969C66.2748 13.1213 65.7251 13.0379 65.2528 12.8465C64.7846 12.6551 64.4201 12.3579 64.1596 11.9548C63.899 11.5517 63.7707 11.0427 63.7748 10.4279V1.33984Z" fill="white"/>
<path d="M57.674 13.1495C56.713 13.1495 55.8865 12.9459 55.1943 12.5387C54.5062 12.1275 53.9768 11.5574 53.6063 10.8286C53.2399 10.0998 53.0566 9.261 53.0566 8.31229C53.0566 7.35137 53.2419 6.50853 53.6124 5.78376C53.987 5.05493 54.5184 4.48692 55.2065 4.07975C55.8946 3.66851 56.713 3.46289 57.6617 3.46289C58.4802 3.46289 59.1968 3.61151 59.8116 3.90874C60.4264 4.20598 60.913 4.62333 61.2713 5.16079C61.6296 5.69826 61.8271 6.32937 61.8637 7.05413H59.4085C59.3393 6.58589 59.1561 6.20926 58.8588 5.92424C58.5657 5.63515 58.1809 5.4906 57.7045 5.4906C57.3014 5.4906 56.9492 5.60054 56.6479 5.82041C56.3507 6.03621 56.1186 6.35176 55.9516 6.76708C55.7847 7.18239 55.7012 7.68525 55.7012 8.27565C55.7012 8.87419 55.7826 9.38315 55.9455 9.80254C56.1125 10.2219 56.3466 10.5415 56.6479 10.7614C56.9492 10.9813 57.3014 11.0912 57.7045 11.0912C58.0017 11.0912 58.2684 11.0302 58.5046 10.908C58.7448 10.7859 58.9423 10.6087 59.097 10.3766C59.2558 10.1405 59.3596 9.8575 59.4085 9.5277H61.8637C61.823 10.2443 61.6276 10.8754 61.2774 11.421C60.9313 11.9626 60.4529 12.386 59.8421 12.6914C59.2314 12.9968 58.5087 13.1495 57.674 13.1495Z" fill="white"/>
<path d="M47.8122 13.1495C46.8472 13.1495 46.0165 12.954 45.3203 12.5632C44.6281 12.1682 44.0947 11.6104 43.7201 10.8897C43.3455 10.1649 43.1582 9.30782 43.1582 8.3184C43.1582 7.3534 43.3455 6.50649 43.7201 5.77766C44.0947 5.04882 44.622 4.48082 45.302 4.07365C45.986 3.66648 46.7881 3.46289 47.7083 3.46289C48.3272 3.46289 48.9034 3.56265 49.4368 3.76216C49.9742 3.9576 50.4425 4.2528 50.8415 4.64776C51.2446 5.04271 51.5581 5.53946 51.7821 6.138C52.006 6.73247 52.118 7.42873 52.118 8.22679V8.94137H44.1965V7.32897H49.6689C49.6689 6.95438 49.5874 6.62253 49.4246 6.33344C49.2617 6.04435 49.0357 5.81837 48.7466 5.6555C48.4616 5.48856 48.1298 5.40509 47.7511 5.40509C47.3561 5.40509 47.006 5.49671 46.7006 5.67993C46.3993 5.85909 46.1631 6.10135 45.9921 6.40673C45.8211 6.70804 45.7336 7.04395 45.7295 7.41448V8.94748C45.7295 9.41165 45.815 9.81271 45.986 10.1507C46.1611 10.4886 46.4074 10.7492 46.725 10.9324C47.0426 11.1157 47.4192 11.2073 47.8549 11.2073C48.144 11.2073 48.4087 11.1666 48.6489 11.0851C48.8891 11.0037 49.0947 10.8815 49.2658 10.7187C49.4368 10.5558 49.5671 10.3563 49.6566 10.1201L52.063 10.2789C51.9409 10.8571 51.6905 11.362 51.3118 11.7936C50.9372 12.2211 50.4527 12.555 49.8582 12.7952C49.2678 13.0314 48.5858 13.1495 47.8122 13.1495Z" fill="white"/>
<path d="M35.8186 7.54274V12.9663H33.2168V3.58504H35.6965V5.24019H35.8064C36.0141 4.69458 36.3622 4.26298 36.8508 3.94539C37.3394 3.62372 37.9318 3.46289 38.6281 3.46289C39.2796 3.46289 39.8476 3.6054 40.3321 3.89042C40.8166 4.17544 41.1933 4.58261 41.462 5.11193C41.7307 5.63718 41.8651 6.26422 41.8651 6.99306V12.9663H39.2633V7.45723C39.2674 6.88312 39.1208 6.43524 38.8235 6.11357C38.5263 5.78783 38.1171 5.62497 37.5959 5.62497C37.2457 5.62497 36.9363 5.70029 36.6676 5.85095C36.4029 6.0016 36.1952 6.22147 36.0446 6.51056C35.898 6.79558 35.8227 7.13964 35.8186 7.54274Z" fill="white"/>
<path d="M25.4964 7.54274V12.9663H22.8945V3.58504H25.3742V5.24019H25.4841C25.6918 4.69458 26.0399 4.26298 26.5285 3.94539C27.0171 3.62372 27.6096 3.46289 28.3058 3.46289C28.9573 3.46289 29.5253 3.6054 30.0098 3.89042C30.4944 4.17544 30.871 4.58261 31.1397 5.11193C31.4085 5.63718 31.5428 6.26422 31.5428 6.99306V12.9663H28.941V7.45723C28.9451 6.88312 28.7985 6.43524 28.5013 6.11357C28.204 5.78783 27.7948 5.62497 27.2737 5.62497C26.9235 5.62497 26.614 5.70029 26.3453 5.85095C26.0806 6.0016 25.873 6.22147 25.7223 6.51056C25.5758 6.79558 25.5004 7.13964 25.4964 7.54274Z" fill="white"/>
<path d="M16.963 13.1495C16.0143 13.1495 15.1939 12.9479 14.5017 12.5448C13.8136 12.1377 13.2822 11.5717 12.9076 10.8469C12.533 10.1181 12.3457 9.27321 12.3457 8.31229C12.3457 7.34323 12.533 6.49631 12.9076 5.77155C13.2822 5.04271 13.8136 4.47674 14.5017 4.07365C15.1939 3.66648 16.0143 3.46289 16.963 3.46289C17.9117 3.46289 18.7301 3.66648 19.4183 4.07365C20.1104 4.47674 20.6438 5.04271 21.0184 5.77155C21.393 6.49631 21.5803 7.34323 21.5803 8.31229C21.5803 9.27321 21.393 10.1181 21.0184 10.8469C20.6438 11.5717 20.1104 12.1377 19.4183 12.5448C18.7301 12.9479 17.9117 13.1495 16.963 13.1495ZM16.9752 11.134C17.4068 11.134 17.7672 11.0118 18.0563 10.7675C18.3454 10.5192 18.5632 10.1812 18.7098 9.75367C18.8604 9.32615 18.9358 8.83958 18.9358 8.29397C18.9358 7.74836 18.8604 7.26179 18.7098 6.83426C18.5632 6.40673 18.3454 6.06878 18.0563 5.82041C17.7672 5.57203 17.4068 5.44785 16.9752 5.44785C16.5396 5.44785 16.1731 5.57203 15.8759 5.82041C15.5827 6.06878 15.3608 6.40673 15.2101 6.83426C15.0636 7.26179 14.9903 7.74836 14.9903 8.29397C14.9903 8.83958 15.0636 9.32615 15.2101 9.75367C15.3608 10.1812 15.5827 10.5192 15.8759 10.7675C16.1731 11.0118 16.5396 11.134 16.9752 11.134Z" fill="white"/>
<path d="M11.2562 4.83724H8.58112C8.53226 4.49115 8.4325 4.18373 8.28185 3.915C8.1312 3.64219 7.93779 3.41011 7.70163 3.21874C7.46547 3.02737 7.19267 2.88079 6.88322 2.77899C6.57784 2.6772 6.246 2.6263 5.88769 2.6263C5.24028 2.6263 4.67635 2.78714 4.19589 3.1088C3.71543 3.42639 3.34287 3.89057 3.07821 4.50132C2.81355 5.10801 2.68122 5.84499 2.68122 6.71226C2.68122 7.60396 2.81355 8.35316 3.07821 8.95984C3.34694 9.56653 3.72154 10.0246 4.202 10.334C4.68246 10.6435 5.23825 10.7982 5.86936 10.7982C6.2236 10.7982 6.55137 10.7514 6.85268 10.6577C7.15806 10.5641 7.42883 10.4277 7.66498 10.2485C7.90114 10.0653 8.09659 9.8434 8.25131 9.58281C8.41011 9.32222 8.52004 9.02499 8.58112 8.69111L11.2562 8.70332C11.187 9.27743 11.014 9.83119 10.7371 10.3646C10.4643 10.8939 10.0958 11.3683 9.63162 11.7876C9.17152 12.203 8.62184 12.5328 7.98258 12.7771C7.34739 13.0173 6.62874 13.1374 5.82661 13.1374C4.71096 13.1374 3.7134 12.885 2.83391 12.3801C1.95849 11.8752 1.2663 11.1443 0.757337 10.1875C0.252446 9.23061 0 8.07221 0 6.71226C0 5.34824 0.256518 4.1878 0.769552 3.23095C1.28259 2.2741 1.97885 1.54527 2.85834 1.04445C3.73783 0.539555 4.72725 0.287109 5.82661 0.287109C6.55137 0.287109 7.22321 0.388902 7.8421 0.592487C8.46508 0.796072 9.01679 1.09331 9.49725 1.48419C9.97771 1.871 10.3686 2.34536 10.6699 2.90725C10.9753 3.46915 11.1707 4.11248 11.2562 4.83724Z" fill="white"/>
</svg>
