<svg width="24" height="25" viewBox="0 0 24 25" fill="none" xmlns="http://www.w3.org/2000/svg">
<path fill-rule="evenodd" clip-rule="evenodd" d="M11 4.35938C7.13401 4.35938 4 7.49338 4 11.3594C4 15.2254 7.13401 18.3594 11 18.3594C14.866 18.3594 18 15.2254 18 11.3594C18 7.49338 14.866 4.35938 11 4.35938ZM2 11.3594C2 6.38881 6.02944 2.35938 11 2.35938C15.9706 2.35938 20 6.38881 20 11.3594C20 16.3299 15.9706 20.3594 11 20.3594C6.02944 20.3594 2 16.3299 2 11.3594Z" fill="black"/>
<path fill-rule="evenodd" clip-rule="evenodd" d="M15.9433 16.3027C16.3338 15.9121 16.967 15.9121 17.3575 16.3027L21.7075 20.6527C22.098 21.0432 22.098 21.6763 21.7075 22.0669C21.317 22.4574 20.6838 22.4574 20.2933 22.0669L15.9433 17.7169C15.5528 17.3263 15.5528 16.6932 15.9433 16.3027Z" fill="black"/>
</svg>
