<svg width="24" height="25" viewBox="0 0 24 25" fill="none" xmlns="http://www.w3.org/2000/svg">
<g clip-path="url(#clip0_65_1035)">
<path fill-rule="evenodd" clip-rule="evenodd" d="M12 10.3594C10.8954 10.3594 10 11.2548 10 12.3594C10 13.4639 10.8954 14.3594 12 14.3594C13.1046 14.3594 14 13.4639 14 12.3594C14 11.2548 13.1046 10.3594 12 10.3594ZM8 12.3594C8 10.1502 9.79086 8.35938 12 8.35938C14.2091 8.35938 16 10.1502 16 12.3594C16 14.5685 14.2091 16.3594 12 16.3594C9.79086 16.3594 8 14.5685 8 12.3594Z" fill="white"/>
<path fill-rule="evenodd" clip-rule="evenodd" d="M12 2.35938C11.7348 2.35938 11.4804 2.46473 11.2929 2.65227C11.1054 2.83981 11 3.09416 11 3.35938V3.53336C10.9979 4.05017 10.8448 4.5551 10.5594 4.98599C10.2741 5.41688 9.86895 5.75493 9.39393 5.95851C9.30938 5.99475 9.22042 6.01907 9.12961 6.03094C8.69798 6.18209 8.23333 6.21935 7.781 6.13734C7.26 6.04287 6.77925 5.79449 6.40073 5.42424L6.39285 5.41652L6.33289 5.35648C6.24002 5.2635 6.12934 5.18935 6.00794 5.13903C5.88654 5.0887 5.75642 5.0628 5.625 5.0628C5.49358 5.0628 5.36346 5.0887 5.24206 5.13903C5.12066 5.18935 5.01037 5.26311 4.9175 5.35609L4.91671 5.35687C4.82374 5.44975 4.74998 5.56004 4.69965 5.68143C4.64933 5.80283 4.62343 5.93296 4.62343 6.06437C4.62343 6.19579 4.64933 6.32592 4.69965 6.44732C4.74998 6.56871 4.82374 6.679 4.91671 6.77187L4.98491 6.84007C5.35516 7.21858 5.60349 7.69938 5.69796 8.22038C5.79055 8.731 5.73113 9.25734 5.52745 9.73415C5.34189 10.2207 5.01698 10.642 4.59305 10.9453C4.16054 11.2546 3.64498 11.4267 3.11338 11.4391L3.09 11.4394H3C2.73478 11.4394 2.48043 11.5447 2.29289 11.7323C2.10536 11.9198 2 12.1742 2 12.4394C2 12.7046 2.10536 12.9589 2.29289 13.1465C2.48043 13.334 2.73478 13.4394 3 13.4394H3.17399C3.6908 13.4414 4.19572 13.5946 4.62661 13.8799C5.05601 14.1643 5.3932 14.5676 5.59701 15.0405C5.80908 15.5236 5.87211 16.0591 5.77796 16.5784C5.68349 17.0994 5.43512 17.5801 5.06486 17.9586L5.05715 17.9665L4.9971 18.0265C4.90413 18.1194 4.82998 18.23 4.77965 18.3514C4.72933 18.4728 4.70343 18.603 4.70343 18.7344C4.70343 18.8658 4.72933 18.9959 4.77965 19.1173C4.82998 19.2387 4.90374 19.349 4.99671 19.4419L4.9975 19.4427C5.09037 19.5356 5.20066 19.6094 5.32206 19.6597C5.44346 19.71 5.57359 19.7359 5.705 19.7359C5.83641 19.7359 5.96654 19.71 6.08794 19.6597C6.20934 19.6094 6.31963 19.5356 6.4125 19.4427L6.48069 19.3745C6.85921 19.0042 7.34 18.7559 7.861 18.6614C8.37163 18.5688 8.89796 18.6282 9.37477 18.8319C9.86132 19.0175 10.2827 19.3424 10.5859 19.7663C10.8952 20.1988 11.0673 20.7144 11.0797 21.246L11.08 21.2694V21.3594C11.08 21.6246 11.1854 21.8789 11.3729 22.0665C11.5604 22.254 11.8148 22.3594 12.08 22.3594C12.3452 22.3594 12.5996 22.254 12.7871 22.0665C12.9746 21.8789 13.08 21.6246 13.08 21.3594V21.1894L13.08 21.1854C13.0821 20.6686 13.2352 20.1637 13.5206 19.7328C13.805 19.3033 14.2083 18.9661 14.6812 18.7623C15.1643 18.5503 15.6998 18.4873 16.219 18.5814C16.74 18.6759 17.2207 18.9243 17.5993 19.2945L17.6071 19.3022L17.6671 19.3623C17.76 19.4552 17.8707 19.5294 17.9921 19.5797C18.1135 19.63 18.2436 19.6559 18.375 19.6559C18.5064 19.6559 18.6365 19.63 18.7579 19.5797C18.8793 19.5294 18.9896 19.4556 19.0825 19.3627L19.0833 19.3619C19.1763 19.269 19.25 19.1587 19.3003 19.0373C19.3507 18.9159 19.3766 18.7858 19.3766 18.6544C19.3766 18.523 19.3507 18.3928 19.3003 18.2714C19.25 18.15 19.1763 18.0397 19.0833 17.9469L19.0151 17.8787C18.6448 17.5002 18.3965 17.0194 18.302 16.4984C18.2079 15.9792 18.2709 15.4437 18.4829 14.9606C18.6867 14.4877 19.024 14.0843 19.4534 13.7999C19.8843 13.5146 20.3892 13.3614 20.906 13.3594L20.91 13.3594L21 13.3594C21.2652 13.3594 21.5196 13.254 21.7071 13.0665C21.8946 12.8789 22 12.6246 22 12.3594C22 12.0942 21.8946 11.8398 21.7071 11.6523C21.5196 11.4647 21.2652 11.3594 21 11.3594H20.83L20.826 11.3594C20.3092 11.3573 19.8043 11.2042 19.3734 10.9188C18.9425 10.6335 18.6045 10.2283 18.4009 9.75331C18.3646 9.66875 18.3403 9.57979 18.3284 9.48898C18.1773 9.05735 18.14 8.5927 18.222 8.14038C18.3165 7.61938 18.5649 7.13863 18.9351 6.76011L18.9428 6.75223L19.0029 6.69227C19.0959 6.5994 19.17 6.48871 19.2203 6.36732C19.2707 6.24592 19.2966 6.11579 19.2966 5.98438C19.2966 5.85296 19.2707 5.72283 19.2203 5.60143C19.17 5.48004 19.0963 5.36975 19.0033 5.27688L19.0025 5.27609C18.9096 5.18311 18.7993 5.10935 18.6779 5.05903C18.5565 5.0087 18.4264 4.9828 18.295 4.9828C18.1636 4.9828 18.0335 5.0087 17.9121 5.05903C17.7907 5.10935 17.6804 5.18311 17.5875 5.27609L17.5193 5.34428C17.1408 5.71454 16.66 5.96287 16.139 6.05734C15.6198 6.15148 15.0843 6.08846 14.6011 5.87639C14.1282 5.67258 13.7249 5.33538 13.4406 4.90599C13.1552 4.4751 13.0021 3.97017 13 3.45336L13 3.44937V3.35938C13 3.09416 12.8946 2.83981 12.7071 2.65227C12.5196 2.46473 12.2652 2.35938 12 2.35938ZM19.4 15.3594L20.3149 15.7631C20.2624 15.882 20.2468 16.0138 20.27 16.1416C20.2929 16.2679 20.3527 16.3847 20.4419 16.477L20.4967 16.5319C20.4966 16.5317 20.4968 16.532 20.4967 16.5319C20.7755 16.8104 20.997 17.1415 21.1479 17.5056C21.2989 17.8697 21.3766 18.2601 21.3766 18.6544C21.3766 19.0486 21.2989 19.439 21.1479 19.8032C20.9969 20.1674 20.7756 20.4983 20.4967 20.7769L19.79 20.0694L20.4975 20.7761C20.2189 21.055 19.888 21.2763 19.5238 21.4273C19.1596 21.5782 18.7692 21.6559 18.375 21.6559C17.9808 21.6559 17.5904 21.5782 17.2262 21.4273C16.8622 21.2764 16.5314 21.0552 16.2529 20.7765C16.2528 20.7764 16.253 20.7766 16.2529 20.7765L16.1977 20.7213C16.1053 20.6321 15.9886 20.5722 15.8622 20.5493C15.7344 20.5262 15.6026 20.5418 15.4838 20.5942L15.474 20.5986C15.3574 20.6485 15.258 20.7314 15.1881 20.8371C15.1183 20.9423 15.0808 21.0656 15.08 21.1919V21.3594C15.08 22.155 14.7639 22.9181 14.2013 23.4807C13.6387 24.0433 12.8757 24.3594 12.08 24.3594C11.2843 24.3594 10.5213 24.0433 9.95868 23.4807C9.39607 22.9181 9.08 22.155 9.08 21.3594V21.2837C9.07526 21.1565 9.03327 21.0335 8.95914 20.9298C8.88326 20.8237 8.77723 20.7429 8.65482 20.6979C8.63505 20.6906 8.61551 20.6827 8.59624 20.6742C8.47742 20.6218 8.34561 20.6062 8.21782 20.6293C8.09142 20.6522 7.97467 20.7121 7.8823 20.8013L7.8275 20.8561C7.82737 20.8562 7.82763 20.856 7.8275 20.8561C7.54896 21.1348 7.21784 21.3564 6.85382 21.5073C6.48963 21.6582 6.09925 21.7359 5.705 21.7359C5.31075 21.7359 4.92037 21.6582 4.55618 21.5073C4.19233 21.3564 3.86174 21.1354 3.58329 20.8569C3.30436 20.5783 3.08308 20.2474 2.93211 19.8832C2.78113 19.519 2.70343 19.1286 2.70343 18.7344C2.70343 18.3401 2.78113 17.9497 2.93211 17.5856C3.08308 17.2214 3.30436 16.8905 3.58329 16.6119L3.63811 16.5571C3.72728 16.4647 3.78713 16.3479 3.81005 16.2216C3.83322 16.0938 3.81758 15.962 3.76514 15.8431L3.76081 15.8333C3.71087 15.7168 3.62801 15.6174 3.52232 15.5474C3.41704 15.4777 3.29374 15.4402 3.1675 15.4394H3C2.20435 15.4394 1.44129 15.1233 0.87868 14.5607C0.316071 13.9981 0 13.235 0 12.4394C0 11.6437 0.316071 10.8807 0.87868 10.3181C1.44129 9.75545 2.20435 9.43937 3 9.43937H3.07564C3.20283 9.43463 3.32591 9.39264 3.42955 9.31852C3.53564 9.24264 3.61644 9.13661 3.66146 9.01419C3.66874 8.99442 3.67663 8.97488 3.68514 8.95561C3.73758 8.83679 3.75322 8.70499 3.73005 8.5772C3.70713 8.4508 3.64728 8.33405 3.5581 8.24169L3.50329 8.18687C3.22436 7.90826 3.00308 7.57739 2.85211 7.2132C2.70113 6.849 2.62343 6.45862 2.62343 6.06437C2.62343 5.67013 2.70113 5.27975 2.85211 4.91555C3.00301 4.55153 3.22415 4.22081 3.50289 3.94227C3.78143 3.66352 4.11216 3.44238 4.47618 3.29148C4.84037 3.14051 5.23075 3.0628 5.625 3.0628C6.01925 3.0628 6.40963 3.14051 6.77382 3.29148C7.13802 3.44246 7.46888 3.66373 7.7475 3.94266L7.80231 3.99747C7.89468 4.08665 8.01142 4.1465 8.13782 4.16942C8.26561 4.19259 8.39742 4.17695 8.51624 4.12451C8.58027 4.09625 8.64693 4.07487 8.71507 4.0606C8.78479 4.01327 8.84498 3.95261 8.89195 3.88169C8.96167 3.77641 8.99921 3.65312 9 3.52687V3.35938C9 2.56372 9.31607 1.80066 9.87868 1.23805C10.4413 0.675446 11.2044 0.359375 12 0.359375C12.7956 0.359375 13.5587 0.675446 14.1213 1.23805C14.6839 1.80066 15 2.56372 15 3.35938V3.44687C15.0008 3.57312 15.0383 3.69641 15.1081 3.80169C15.178 3.90738 15.2774 3.9903 15.3939 4.04024L15.4038 4.04446C15.5226 4.0969 15.6544 4.11259 15.7822 4.08942C15.9086 4.06651 16.0253 4.00666 16.1177 3.91749L16.1725 3.86266C16.4511 3.58373 16.782 3.36245 17.1462 3.21148C17.5104 3.06051 17.9008 2.9828 18.295 2.9828C18.6892 2.9828 19.0796 3.06051 19.4438 3.21148C19.808 3.36246 20.1389 3.58373 20.4175 3.86266C20.6961 4.14112 20.9171 4.4717 21.0679 4.83555C21.2189 5.19975 21.2966 5.59013 21.2966 5.98438C21.2966 6.37862 21.2189 6.769 21.0679 7.1332C20.917 7.49722 20.6959 7.82794 20.4171 8.10648C20.417 8.10661 20.4172 8.10635 20.4171 8.10648L20.3619 8.16168C20.2727 8.25405 20.2129 8.3708 20.19 8.4972C20.1668 8.62499 20.1824 8.75679 20.2349 8.87561C20.2631 8.93965 20.2845 9.0063 20.2988 9.07444C20.3461 9.14417 20.4068 9.20436 20.4777 9.25132C20.583 9.32104 20.7063 9.35858 20.8325 9.35938H21C21.7957 9.35938 22.5587 9.67545 23.1213 10.2381C23.6839 10.8007 24 11.5637 24 12.3594C24 13.155 23.6839 13.9181 23.1213 14.4807C22.5587 15.0433 21.7957 15.3594 21 15.3594H20.9125C20.7863 15.3602 20.663 15.3977 20.5577 15.4674C20.452 15.5374 20.3691 15.6368 20.3191 15.7533L19.4 15.3594Z" fill="white"/>
</g>
<defs>
<clipPath id="clip0_65_1035">
<rect width="24" height="24" fill="white" transform="translate(0 0.359375)"/>
</clipPath>
</defs>
</svg>
