<svg width="24" height="25" viewBox="0 0 24 25" fill="none" xmlns="http://www.w3.org/2000/svg">
<path fill-rule="evenodd" clip-rule="evenodd" d="M4 13.3594C4.55228 13.3594 5 13.8071 5 14.3594V21.3594C5 21.9117 4.55228 22.3594 4 22.3594C3.44772 22.3594 3 21.9117 3 21.3594V14.3594C3 13.8071 3.44772 13.3594 4 13.3594Z" fill="black"/>
<path fill-rule="evenodd" clip-rule="evenodd" d="M4 2.35938C4.55228 2.35938 5 2.80709 5 3.35938V10.3594C5 10.9117 4.55228 11.3594 4 11.3594C3.44772 11.3594 3 10.9117 3 10.3594V3.35938C3 2.80709 3.44772 2.35938 4 2.35938Z" fill="black"/>
<path fill-rule="evenodd" clip-rule="evenodd" d="M12 11.3594C12.5523 11.3594 13 11.8071 13 12.3594V21.3594C13 21.9117 12.5523 22.3594 12 22.3594C11.4477 22.3594 11 21.9117 11 21.3594V12.3594C11 11.8071 11.4477 11.3594 12 11.3594Z" fill="black"/>
<path fill-rule="evenodd" clip-rule="evenodd" d="M12 2.35938C12.5523 2.35938 13 2.80709 13 3.35938V8.35938C13 8.91166 12.5523 9.35938 12 9.35938C11.4477 9.35938 11 8.91166 11 8.35938V3.35938C11 2.80709 11.4477 2.35938 12 2.35938Z" fill="black"/>
<path fill-rule="evenodd" clip-rule="evenodd" d="M20 15.3594C20.5523 15.3594 21 15.8071 21 16.3594V21.3594C21 21.9117 20.5523 22.3594 20 22.3594C19.4477 22.3594 19 21.9117 19 21.3594V16.3594C19 15.8071 19.4477 15.3594 20 15.3594Z" fill="black"/>
<path fill-rule="evenodd" clip-rule="evenodd" d="M20 2.35938C20.5523 2.35938 21 2.80709 21 3.35938V12.3594C21 12.9117 20.5523 13.3594 20 13.3594C19.4477 13.3594 19 12.9117 19 12.3594V3.35938C19 2.80709 19.4477 2.35938 20 2.35938Z" fill="black"/>
<path fill-rule="evenodd" clip-rule="evenodd" d="M0 14.3594C0 13.8071 0.447715 13.3594 1 13.3594H7C7.55228 13.3594 8 13.8071 8 14.3594C8 14.9117 7.55228 15.3594 7 15.3594H1C0.447715 15.3594 0 14.9117 0 14.3594Z" fill="black"/>
<path fill-rule="evenodd" clip-rule="evenodd" d="M8 8.35938C8 7.80709 8.44771 7.35938 9 7.35938H15C15.5523 7.35938 16 7.80709 16 8.35938C16 8.91166 15.5523 9.35938 15 9.35938H9C8.44771 9.35938 8 8.91166 8 8.35938Z" fill="black"/>
<path fill-rule="evenodd" clip-rule="evenodd" d="M16 16.3594C16 15.8071 16.4477 15.3594 17 15.3594H23C23.5523 15.3594 24 15.8071 24 16.3594C24 16.9117 23.5523 17.3594 23 17.3594H17C16.4477 17.3594 16 16.9117 16 16.3594Z" fill="black"/>
</svg>
