<svg width="24" height="25" viewBox="0 0 24 25" fill="none" xmlns="http://www.w3.org/2000/svg">
<path fill-rule="evenodd" clip-rule="evenodd" d="M4.46447 15.8238C5.40215 14.8862 6.67392 14.3594 8 14.3594H16C17.3261 14.3594 18.5979 14.8862 19.5355 15.8238C20.4732 16.7615 21 18.0333 21 19.3594V21.3594C21 21.9117 20.5523 22.3594 20 22.3594C19.4477 22.3594 19 21.9117 19 21.3594V19.3594C19 18.5637 18.6839 17.8007 18.1213 17.2381C17.5587 16.6754 16.7956 16.3594 16 16.3594H8C7.20435 16.3594 6.44129 16.6754 5.87868 17.2381C5.31607 17.8007 5 18.5637 5 19.3594V21.3594C5 21.9117 4.55228 22.3594 4 22.3594C3.44772 22.3594 3 21.9117 3 21.3594V19.3594C3 18.0333 3.52678 16.7615 4.46447 15.8238Z" fill="white"/>
<path fill-rule="evenodd" clip-rule="evenodd" d="M12 4.35938C10.3431 4.35938 9 5.70252 9 7.35938C9 9.01623 10.3431 10.3594 12 10.3594C13.6569 10.3594 15 9.01623 15 7.35938C15 5.70252 13.6569 4.35938 12 4.35938ZM7 7.35938C7 4.59795 9.23858 2.35938 12 2.35938C14.7614 2.35938 17 4.59795 17 7.35938C17 10.1208 14.7614 12.3594 12 12.3594C9.23858 12.3594 7 10.1208 7 7.35938Z" fill="white"/>
</svg>
